<?xml version="1.0" encoding="UTF-8"?>
<svg width="1001px" height="1000px" viewBox="0 0 1001 1000" version="1.1" xmlns="http://www.w3.org/2000/svg" xmlns:xlink="http://www.w3.org/1999/xlink">
    <!-- Generator: Sketch 55.1 (78136) - https://sketchapp.com -->
    <title>编组 43</title>
    <desc>Created with Sketch.</desc>
    <g id="1000个上传" stroke="none" stroke-width="1" fill="none" fill-rule="evenodd">
        <g id="14" transform="translate(-6236.000000, -170.000000)">
            <g id="编组-43" transform="translate(6236.888889, 170.000000)">
                <rect id="矩形备份-36" x="0" y="0" width="1000" height="1000"></rect>
                <g id="编组-11" transform="translate(128.000000, 154.000000)" fill-rule="nonzero">
                    <polygon id="路径" fill="#45A97F" points="1.42108547e-13 278.31578 103.41 547.41578 313.92 425.82578 331.29 87.1557799"></polygon>
                    <polygon id="路径" fill="#7ECEA6" points="411.21 725.16578 103.32 547.41578 313.92 425.82578 621.81 603.66578"></polygon>
                    <path d="M410.85,515.28578 L1.56319402e-13,278.31578 L103.41,547.41578 L411.3,725.16578 L410.85,515.28578 Z M123.84,518.79578 L68.4,368.22578 L99.18,386.22578 L149.85,533.82578 L123.84,518.79578 Z M175.23,548.49578 L129.24,403.32578 L160.11,421.32578 L201.33,563.70578 L175.23,548.49578 Z M226.71,578.19578 L190.17,438.51578 L220.95,456.51578 L252.72,593.40578 L226.71,578.19578 Z M278.19,607.89578 L251.19,473.70578 L281.97,491.70578 L304.29,623.19578 L278.19,607.89578 Z M329.67,637.59578 L311.67,508.89578 L342.54,526.89578 L355.41,652.89578 L329.67,637.59578 Z" id="形状" fill="#66BF95"></path>
                    <path d="M741.87,324.21578 L331.29,87.1557799 L313.92,425.82578 L621.81,603.66578 L741.87,324.21578 Z M352.44,405.21578 L371.16,231.33578 L400.05,248.07578 L376.83,419.07578 L352.44,405.21578 Z M400.68,433.47578 L428.31,264.81578 L457.2,281.46578 L425.07,447.60578 L400.68,433.47578 Z M448.92,461.37578 L485.37,297.75578 L514.26,314.40578 L473.31,475.41578 L448.92,461.37578 Z M497.16,489.18578 L542.16,330.69578 L571.05,347.43578 L521.55,503.22578 L497.16,489.18578 Z M545.4,517.08578 L599.4,364.08578 L628.29,380.73578 L569.61,531.48578 L545.4,517.08578 Z" id="形状" fill="#66BF95"></path>
                    <polygon id="路径" fill="#45A97F" points="410.58 515.28578 411.3 725.16578 621.81 603.66578 741.78 324.12578"></polygon>
                    <path d="M331.29,87.1557799 L4.26325641e-14,278.40578 L410.85,515.37578 L742.14,324.21578 L331.29,87.1557799 Z M41.85,278.40578 L331.29,111.27578 L700.29,324.12578 L410.85,491.25578 L41.85,278.40578 Z" id="形状" fill="#7ECEA6"></path>
                    <path d="M660.51,5.61577991 C654.211971,-0.563683462 644.563669,-1.77892763 636.93,2.64577991 L303.93,194.79578 C300.855963,196.593546 298.310375,199.170178 296.55,202.26578 L188.55,396.66578 C184.379563,405.993901 188.066649,416.961194 197.02523,421.875481 C205.98381,426.789768 217.214334,424.005626 222.84,415.47578 L328.41,226.47578 L595.08,72.4857799 L524.61,199.20578 L558.54,218.82578 L663.93,29.8257799 C668.537956,21.938306 667.122478,11.9182112 660.51,5.61577991 Z" id="路径" fill="#C5CAD1"></path>
                </g>
            </g>
        </g>
    </g>
</svg>